<svg width="40" height="40" viewBox="0 0 40 40" fill="none" xmlns="http://www.w3.org/2000/svg">
<rect width="40" height="40" rx="20" fill="black" fill-opacity="0.08"/>
<path fill-rule="evenodd" clip-rule="evenodd" d="M19.99 10C14.47 10 10 14.48 10 20C10 25.52 14.47 30 19.99 30C25.52 30 30 25.52 30 20C30 14.48 25.52 10 19.99 10ZM21 21V15H19V21H21ZM21 25V23H19V25H21ZM12 20C12 24.42 15.58 28 20 28C24.42 28 28 24.42 28 20C28 15.58 24.42 12 20 12C15.58 12 12 15.58 12 20Z" fill="black" fill-opacity="0.6"/>
</svg>
